<mxfile host="65bd71144e">
    <diagram id="RnvHc61XqItXA4Zbxa3o" name="Page-1">
        <mxGraphModel dx="859" dy="692" grid="0" gridSize="10" guides="1" tooltips="1" connect="1" arrows="1" fold="1" page="1" pageScale="1" pageWidth="850" pageHeight="1100" math="0" shadow="0">
            <root>
                <mxCell id="0"/>
                <mxCell id="1" parent="0"/>
                <mxCell id="2" value="Nav Component Server" style="whiteSpace=wrap;html=1;aspect=fixed;verticalAlign=top;imageHeight=24;" vertex="1" parent="1">
                    <mxGeometry x="297.5" y="112.5" width="205" height="205" as="geometry"/>
                </mxCell>
                <mxCell id="3" value="Path: server/v1/raw-nav-component" style="text;html=1;strokeColor=none;fillColor=none;align=center;verticalAlign=middle;whiteSpace=wrap;rounded=0;" vertex="1" parent="1">
                    <mxGeometry x="297.5" y="180" width="200" height="30" as="geometry"/>
                </mxCell>
                <mxCell id="4" value="Path: server/v1/web-nav-component" style="text;html=1;strokeColor=none;fillColor=none;align=center;verticalAlign=middle;whiteSpace=wrap;rounded=0;" vertex="1" parent="1">
                    <mxGeometry x="287.5" y="220" width="220" height="30" as="geometry"/>
                </mxCell>
                <mxCell id="5" value="Path: server/v1/json-nav-component" style="text;html=1;strokeColor=none;fillColor=none;align=center;verticalAlign=middle;whiteSpace=wrap;rounded=0;" vertex="1" parent="1">
                    <mxGeometry x="292.5" y="200" width="210" height="30" as="geometry"/>
                </mxCell>
                <mxCell id="6" value="React Client" style="whiteSpace=wrap;html=1;aspect=fixed;" vertex="1" parent="1">
                    <mxGeometry x="640" y="60" width="90" height="90" as="geometry"/>
                </mxCell>
                <mxCell id="7" value="Angular Client" style="whiteSpace=wrap;html=1;aspect=fixed;" vertex="1" parent="1">
                    <mxGeometry x="640" y="160" width="90" height="90" as="geometry"/>
                </mxCell>
                <mxCell id="8" value="Html/JavaScript Client" style="whiteSpace=wrap;html=1;aspect=fixed;" vertex="1" parent="1">
                    <mxGeometry x="640" y="260" width="90" height="90" as="geometry"/>
                </mxCell>
                <mxCell id="9" value="" style="endArrow=classic;html=1;exitX=0;exitY=0.5;exitDx=0;exitDy=0;entryX=1;entryY=0.25;entryDx=0;entryDy=0;" edge="1" parent="1" source="6" target="2">
                    <mxGeometry width="50" height="50" relative="1" as="geometry">
                        <mxPoint x="530" y="210" as="sourcePoint"/>
                        <mxPoint x="580" y="160" as="targetPoint"/>
                    </mxGeometry>
                </mxCell>
                <mxCell id="10" value="" style="endArrow=classic;html=1;exitX=0;exitY=0.5;exitDx=0;exitDy=0;entryX=1;entryY=0.5;entryDx=0;entryDy=0;" edge="1" parent="1" source="7" target="2">
                    <mxGeometry width="50" height="50" relative="1" as="geometry">
                        <mxPoint x="650" y="115" as="sourcePoint"/>
                        <mxPoint x="512.5" y="173.75" as="targetPoint"/>
                    </mxGeometry>
                </mxCell>
                <mxCell id="11" value="" style="endArrow=classic;html=1;exitX=0;exitY=0.5;exitDx=0;exitDy=0;entryX=1;entryY=0.25;entryDx=0;entryDy=0;" edge="1" parent="1">
                    <mxGeometry width="50" height="50" relative="1" as="geometry">
                        <mxPoint x="640" y="301.25" as="sourcePoint"/>
                        <mxPoint x="502.5" y="260" as="targetPoint"/>
                    </mxGeometry>
                </mxCell>
                <mxCell id="12" value="&lt;div style=&quot;text-align: justify&quot;&gt;&lt;span style=&quot;text-align: center&quot;&gt;{&lt;/span&gt;&lt;/div&gt;&lt;div style=&quot;text-align: justify&quot;&gt;&lt;span style=&quot;text-align: center&quot;&gt;&amp;nbsp; &quot;html&quot;: &quot;...&quot;,&lt;/span&gt;&lt;/div&gt;&lt;div style=&quot;text-align: justify&quot;&gt;&lt;span style=&quot;text-align: center&quot;&gt;&amp;nbsp; &quot;styles&quot;: &quot;...&quot;,&lt;/span&gt;&lt;/div&gt;&lt;div&gt;&amp;nbsp; &amp;nbsp;&quot;javascript&quot;: &quot;...&quot;&lt;/div&gt;&lt;div style=&quot;text-align: left&quot;&gt;}&lt;/div&gt;" style="rounded=1;whiteSpace=wrap;html=1;" vertex="1" parent="1">
                    <mxGeometry x="320" y="350" width="160" height="90" as="geometry"/>
                </mxCell>
                <mxCell id="13" value="&lt;div style=&quot;text-align: justify&quot;&gt;&lt;span style=&quot;text-align: center&quot;&gt;{&lt;/span&gt;&lt;/div&gt;&lt;div style=&quot;text-align: justify&quot;&gt;&lt;span style=&quot;text-align: center&quot;&gt;&amp;nbsp; &quot;web-component&quot;: &quot;...&quot;,&lt;/span&gt;&lt;/div&gt;&lt;div style=&quot;text-align: left&quot;&gt;}&lt;/div&gt;" style="rounded=1;whiteSpace=wrap;html=1;" vertex="1" parent="1">
                    <mxGeometry x="317.5" y="460" width="160" height="90" as="geometry"/>
                </mxCell>
                <mxCell id="14" value="&lt;div style=&quot;text-align: center&quot;&gt;&quot;raw html/svg/css/js&lt;/div&gt;" style="rounded=1;whiteSpace=wrap;html=1;" vertex="1" parent="1">
                    <mxGeometry x="317.5" y="570" width="160" height="90" as="geometry"/>
                </mxCell>
                <mxCell id="15" value="Path: server/v1/web-nav-component" style="text;html=1;strokeColor=none;fillColor=none;align=center;verticalAlign=middle;whiteSpace=wrap;rounded=0;" vertex="1" parent="1">
                    <mxGeometry x="90" y="490" width="220" height="30" as="geometry"/>
                </mxCell>
                <mxCell id="16" value="Path: server/v1/json-nav-component" style="text;html=1;strokeColor=none;fillColor=none;align=center;verticalAlign=middle;whiteSpace=wrap;rounded=0;" vertex="1" parent="1">
                    <mxGeometry x="100" y="380" width="210" height="30" as="geometry"/>
                </mxCell>
                <mxCell id="17" value="Path: server/v1/raw-nav-component" style="text;html=1;strokeColor=none;fillColor=none;align=center;verticalAlign=middle;whiteSpace=wrap;rounded=0;" vertex="1" parent="1">
                    <mxGeometry x="97.5" y="610" width="200" height="30" as="geometry"/>
                </mxCell>
                <mxCell id="18" value="Nav Component Architecture Strategy" style="text;html=1;strokeColor=none;fillColor=none;align=center;verticalAlign=middle;whiteSpace=wrap;rounded=0;fontSize=15;" vertex="1" parent="1">
                    <mxGeometry x="258" y="20" width="279" height="30" as="geometry"/>
                </mxCell>
            </root>
        </mxGraphModel>
    </diagram>
</mxfile>